<svg xmlns="http://www.w3.org/2000/svg" viewBox="0 0 574.81 460.22"><defs><style>.cls-1{fill:#0b3460;}.cls-2{fill:#dfe8ef;}</style></defs><title>Asset7</title><g id="Layer_2" data-name="Layer 2"><g id="Layer_1-2" data-name="Layer 1"><path class="cls-1" d="M111.72,390.94c-10.13,0-20.34.75-30.38-.2-11.26-1.07-17.57-7.62-19.39-18.82-1.74-10.65-2.79-21.4-4.11-32.11-1.24-10.13-6.11-17.88-15.23-22.56-9.3-4.78-18.88-9-28.12-13.89C7.28,299.55.34,294.64.34,285.55c0-5.43,1.71-11.14,3.86-16.22,3.43-8.07,7.83-15.74,11.9-23.54,5.7-10.9,5.22-21.68-.42-32.42-3.39-6.47-7-12.85-10.09-19.45a83.06,83.06,0,0,1-4.81-13c-2.44-8.69,1-15.55,8.08-20.27,5.76-3.85,12.16-6.75,18.35-10,3.53-1.83,7.14-3.54,10.81-5.09,14-6,19.91-17.1,20.88-31.77.56-8.44,1.62-16.87,3-25.22C64,75.83,72,69,84.93,68.94c10.65,0,21.3.59,31.94,1,11.49.43,20.32-4,26.32-13.94,5.85-9.66,11.3-19.59,17.7-28.88,6.78-9.85,14.88-12.44,26.1-8.48,10.78,3.8,21,9.15,31.89,12.67,5.77,1.87,12.71,2.81,18.44,1.41,5.39-1.33,10.12-6,14.73-9.72,6-4.79,11.38-10.25,17.28-15.12C282-2.59,292.42-2.63,305.14,7.78c6.82,5.59,13.53,11.34,20,17.32,10.26,9.49,21.6,10.7,34.09,5.3,8.37-3.63,16.64-7.54,25.19-10.71,14.69-5.46,22.77-2.9,31.59,10.14a220.56,220.56,0,0,1,12.53,21.52c7,13.34,17.43,20,32.76,18.65,8.62-.74,17.29-1,25.94-1.1,16.21-.12,24.21,7,26.33,23.06,1.37,10.37,2.49,20.77,3.93,31.13,1.26,9.1,6.5,15.56,14.44,19.74,7.33,3.87,14.9,7.28,22.32,11a87.67,87.67,0,0,1,10,5.56c10.21,6.93,13,14.7,8.39,26.24A174.2,174.2,0,0,1,561,209.29c-8.42,14.35-8.08,28.12.37,42.34a152,152,0,0,1,11.7,24.16c4,10.74,1,18.6-8.64,24.89a154.22,154.22,0,0,1-14.9,8c-3.71,1.87-7.47,3.67-11.33,5.18-16.12,6.33-21.87,19.09-22.69,35.34a133,133,0,0,1-2.84,22.71c-3.22,14.23-10.08,19.56-24.7,19.59-12.65,0-25.31-.37-37.94-1-4.68-.22-8.37,1.36-10.84,4.77-5.82,8-11.19,16.41-16.69,24.67-3.12,4.71-5.86,9.69-9.27,14.17-6.38,8.37-14.64,11.06-24.74,7.74-7.23-2.38-14.1-5.81-21.22-8.51-6.82-2.59-13.62-5.45-20.69-7-3.5-.77-8.42,0-11.25,2-9.94,7.2-19.25,15.26-28.79,23-.65.53-1.24,1.12-1.9,1.62-12.43,9.42-21.37,9.67-33.88.3-5.57-4.18-10.45-9.28-15.88-13.67s-10.73-9.17-16.85-12.27c-3.41-1.73-8.68-1.37-12.6-.22-8.39,2.47-16.42,6.16-24.65,9.18-6.2,2.28-12.41,4.63-18.78,6.33-7.51,2-14.11-.84-18.6-6.67-5.34-6.93-9.69-14.64-14.42-22.05-2.58-4.05-4.89-8.3-7.63-12.25-5.45-7.84-13-11.56-22.64-11.1-2.32.11-4.66,0-7,0Z"/><path class="cls-2" d="M473.28,226.49c-2.89,0-5.24-.06-7.38-.21s-3.56-3.57-3.72-4c-2.25-5.25-4.5-10.61-6.67-15.79-2.87-6.87-5.85-14-8.87-20.91a36.15,36.15,0,0,0-5.33-8.62c-3.17-3.79-7-5.72-11.42-5.72a17.94,17.94,0,0,0-3.64.4c-6.51,1.38-10.59,4.88-12.14,10.4-3.33,11.93-3.41,23.34-.23,33.91a19,19,0,0,0,3.46,5.67c.76,1,1.54,2,2.28,3.1l1,1.55H390.83l1-1.54c6.06-9.31,6-19.2,5.85-29.66,0-1.58,0-3.17,0-4.74v-2c.05-13.94.11-28.36.09-42.53,0-8.61-.47-17.73-5.72-26.34l-.93-1.52h32l-2.77,1.83c-6.82,4.52-7.93,10.88-8.12,17.08-.29,9.45-.24,18.7-.18,28.51q0,4.59.05,9.21c5.42-6,12.67-9,22.07-9a5.94,5.94,0,0,0,4.14-2.27c4.33-7.16,8.65-14.49,12.83-21.59,3.94-6.7,8-13.63,12.1-20.4a8.31,8.31,0,0,1,5.57-3.49,45.23,45.23,0,0,1,5.15-.25c1.16,0,2.32,0,3.5,0s2.35.06,3.53.06h1.82l-33.3,52.42c9.31,7.34,13.58,17.15,17.7,26.64.53,1.21,1,2.41,1.59,3.61,2.51,5.65,5.41,11,8.49,16.75,1.38,2.56,2.78,5.16,4.17,7.83l.76,1.46h-1.65l-3.37,0Z"/><path class="cls-2" d="M474,118.62c2.31,0,4.66.11,7,.11l-32.81,51.65c10.8,8.13,14.83,19.48,19.7,30.43,3.67,8.26,8.26,16.11,12.69,24.63-2.23,0-4.71.05-7.3.05-2.38,0-4.85,0-7.31-.21-1.05-.07-2.3-2-2.87-3.35-5.23-12.22-10.24-24.53-15.54-36.71a37.12,37.12,0,0,0-5.48-8.86c-3.29-3.94-7.35-6.08-12.19-6.08a18.8,18.8,0,0,0-3.85.42c-6.4,1.36-11.12,4.77-12.89,11.11-3.19,11.42-3.66,23-.23,34.47.94,3.13,3.66,5.73,5.87,9H392.67c7.18-11,5.94-23.08,6-34.94.06-14.83.12-29.66.1-44.48,0-9.19-.64-18.28-5.87-26.86h26.92c-7,4.66-8.37,11.28-8.57,17.88-.41,13.39-.13,26.81-.13,40.56,5.9-8,13.75-10.82,23.07-10.85a6.84,6.84,0,0,0,5-2.75c8.43-13.93,16.53-28.05,24.94-42a7.28,7.28,0,0,1,4.82-3,44.3,44.3,0,0,1,5-.25m0-2h0a45.1,45.1,0,0,0-5.27.26,9.2,9.2,0,0,0-6.3,4c-4.1,6.78-8.18,13.72-12.13,20.43-4.17,7.08-8.48,14.41-12.81,21.56a5,5,0,0,1-3.28,1.78c-8.74,0-15.68,2.52-21.08,7.59,0-2.28,0-4.55,0-6.78-.06-9.79-.11-19,.17-28.46.19-5.93,1.24-12,7.68-16.27l5.54-3.67H389.33l1.85,3c5.12,8.39,5.56,17.36,5.58,25.82,0,14.23,0,28.7-.09,42.7v1.77c0,1.59,0,3.2,0,4.76.11,10.31.21,20-5.68,29.1l-2,3.09h33.55l-2.09-3.11c-.75-1.13-1.55-2.16-2.31-3.15a18.05,18.05,0,0,1-3.31-5.35c-3.11-10.39-3-21.61.25-33.35,1.45-5.2,5.17-8.37,11.38-9.69a16.6,16.6,0,0,1,3.43-.38c4.15,0,7.64,1.76,10.66,5.37a34.88,34.88,0,0,1,5.17,8.37c3,6.94,6,14,8.88,20.92,2.17,5.17,4.41,10.53,6.66,15.77.44,1,2.07,4.4,4.57,4.57,2.17.14,4.53.21,7.45.21l3.94,0,3.36,0h3.29l-1.52-2.92c-1.39-2.67-2.8-5.3-4.17-7.84-3.07-5.69-6-11.07-8.46-16.68-.53-1.2-1.06-2.4-1.58-3.61-4.07-9.37-8.28-19-17.29-26.46l31.84-50.13,1.95-3.07H481c-1.17,0-2.36,0-3.51-.06s-2.35,0-3.52,0Z"/><path class="cls-2" d="M472.86,349.76c-3,0-5.33-.06-7.5-.2-.41,0-1.68-.1-3.3-3.91q-3-7.06-5.93-14.16c-3-7.27-6.16-14.78-9.35-22.12a39.94,39.94,0,0,0-5.53-9.08,14.11,14.11,0,0,0-11.4-5.62,18.79,18.79,0,0,0-4.18.49c-6.39,1.45-10.43,5.42-12,11.79-2.67,10.76-2.75,21.06-.24,30.62a26.13,26.13,0,0,0,3.58,7.06c.69,1.09,1.41,2.21,2,3.36l.82,1.48H391.25l.91-1.51c6-10,5.78-21.09,5.54-31.84-.06-2.75-.13-5.59-.08-8.38l0-2.63c.21-13.39.41-27.23-.17-40.79A83.86,83.86,0,0,0,395,249.47c-.53-2.33-1.07-4.74-1.53-7.19l-.22-1.19h28.86l-2,1.76c-8.17,7-8.22,15.88-8.27,25.3,0,.87,0,1.73,0,2.6-.09,6.77-.07,13.49-.05,20.61,0,2.32,0,4.66,0,7.05a26.58,26.58,0,0,1,20.65-9.18c.88,0,1.8,0,2.72.11h0a4.46,4.46,0,0,0,2.78-2c7.92-13.17,16.4-27.39,24.79-42.06,1.46-2.56,3-4.14,6.06-4.14h.52c1.38.08,2.86.11,4.68.11l3.57,0,3.82,0h1.87l-1,1.55q-2.76,4.15-5.45,8.14c-4.07,6.05-7.91,11.76-11.64,17.63s-7.18,11.58-10.87,17.71l-4.47,7.4c9.17,7.24,13.52,17.35,17.73,27.13.71,1.63,1.41,3.27,2.13,4.88,2.28,5.1,4.95,10,7.78,15.2,1.31,2.39,2.64,4.83,4,7.37l.77,1.46h-1.66l-3.78,0Z"/><path class="cls-2" d="M419.45,242.09c-9.31,8-8.51,18.46-8.64,28.65-.13,9.82,0,19.65,0,30.41,5.93-7.59,13.08-10.91,21.65-10.91.87,0,1.75,0,2.65.1h.11c1.2,0,2.91-1.3,3.6-2.44,8.38-14,16.72-27.95,24.79-42.09,1.36-2.36,2.6-3.63,5.2-3.63h.47c1.57.09,3.14.11,4.73.11,2.4,0,4.84-.05,7.39-.05-6,9-11.7,17.29-17.11,25.78s-10.39,17-15.81,25.89c11,8.27,15.06,20.52,20.27,32.18,3.35,7.5,7.57,14.61,11.77,22.62-2.52,0-5.06,0-7.62,0s-5,0-7.44-.19c-.9-.06-1.91-2-2.44-3.31C457.86,333.18,452.93,321,447.7,309a41.42,41.42,0,0,0-5.67-9.31,15.13,15.13,0,0,0-12.18-6,20,20,0,0,0-4.4.51c-6.77,1.54-11.08,5.71-12.76,12.53-2.57,10.36-2.94,20.82-.24,31.11,1,3.77,3.74,7.09,5.71,10.65H393c7.72-12.8,5.39-26.94,5.6-40.72.21-14.49.48-29-.14-43.48-.31-7.28-2.54-14.47-4-22.18h25m5.41-2H392.08l.45,2.37c.46,2.47,1,4.89,1.53,7.23a83.53,83.53,0,0,1,2.42,14.67c.58,13.54.38,27.36.18,40.73l0,2.63c-.05,2.81,0,5.66.08,8.42.24,11.09.47,21.57-5.39,31.3l-1.83,3h32.08l-1.65-3c-.64-1.17-1.37-2.31-2.07-3.41a25.32,25.32,0,0,1-3.46-6.78,60.43,60.43,0,0,1,.25-30.12c1.5-6.06,5.18-9.68,11.26-11.05a18,18,0,0,1,4-.47,13.14,13.14,0,0,1,10.62,5.25,39.26,39.26,0,0,1,5.4,8.85c3.18,7.33,6.31,14.83,9.33,22.1,1.94,4.65,3.94,9.45,5.94,14.17,1.66,3.92,3.17,4.46,4.16,4.52,2.19.14,4.53.2,7.57.2l3.86,0,3.76,0h3.31l-1.54-2.93c-1.33-2.54-2.67-5-4-7.39-2.82-5.17-5.48-10.06-7.75-15.11-.72-1.62-1.43-3.27-2.12-4.87-4.15-9.66-8.44-19.62-17.34-27l4-6.63c3.69-6.13,7.18-11.92,10.87-17.71s7.55-11.55,11.61-17.58q2.7-4,5.47-8.18l2.07-3.1h-3.73l-3.83,0-3.56,0c-1.8,0-3.27,0-4.63-.1l-.57,0c-3.95,0-5.65,2.4-6.93,4.64-8.41,14.72-17.25,29.51-24.78,42.05a3.94,3.94,0,0,1-1.88,1.47c-.94-.07-1.86-.1-2.76-.1A27.29,27.29,0,0,0,412.78,296c0-1.55,0-3.09,0-4.61,0-7.12,0-13.83.05-20.59,0-.87,0-1.74,0-2.61.05-9.17.1-17.84,7.92-24.54l4.11-3.52Z"/><path class="cls-2" d="M169.26,349.72c-.4-.44-.83-.85-1.25-1.27a19.55,19.55,0,0,1-2.7-3.09Q149.47,321.18,133.67,297q-10-15.27-19.94-30.54c-1.21-1.85-2.53-3.69-3.81-5.46l-1.09-1.52q0,9.21,0,18.43c0,18-.08,36.57.19,54.84a42.63,42.63,0,0,0,2,10.63c.47,1.69,1,3.43,1.34,5.18l.27,1.21H97.23l.88-1.5c4.82-8.24,4.48-17.2,4.15-25.86-.1-2.8-.21-5.69-.15-8.52.45-20.16.46-40.33,0-59.94,0-2.24-1.41-4.57-2.85-7-.71-1.21-1.43-2.45-2-3.73l-.67-1.43h19.79l.28.54c1.27,2.42,2.49,4.87,3.68,7.23,2.64,5.28,5.13,10.26,8.11,15,8.48,13.58,17.32,27.26,25.88,40.48q4.71,7.28,9.4,14.55a11.14,11.14,0,0,0,2.32,2.73V310.7q0-17.38,0-34.79c0-1.7.07-3.43.13-5.09a70.89,70.89,0,0,0-.09-9.78c-.46-4.38-1.29-8.63-2.17-13.13q-.57-2.88-1.1-5.79l-.21-1.18h15l-.83,1.49c-4.32,7.67-4.17,16.09-4,24.23,0,1.79.07,3.58.06,5.37-.1,15.8-.12,31.87-.13,47.41q0,12,0,24.07c0,1.12-.08,2.24-.16,3.33,0,.49-.08,1-.11,1.49l0,.55-2.56,1.41Z"/><path class="cls-2" d="M175.9,241.94c-5.39,9.58-4,19.94-4.08,30.08-.16,23.83-.11,47.66-.17,71.49,0,1.58-.17,3.17-.27,4.76L170,349a35.44,35.44,0,0,1-3.84-4.22q-25.85-39.45-51.58-79c-1.79-2.73-3.76-5.35-5.64-8l-1.1.42c0,24.82-.2,49.64.16,74.45.08,5.31,2.19,10.59,3.4,16H99c6.54-11.17,3.88-23.22,4.14-34.86q.67-30,0-60c-.08-3.68-3.17-7.29-5-11.17h17.61c4,7.65,7.44,15.3,11.83,22.35,11.54,18.49,23.49,36.72,35.29,55a11.05,11.05,0,0,0,4.16,4.07q0-24.12,0-48.26c0-5,.55-10,0-15-.65-6.33-2.13-12.58-3.28-19H175.9m3.42-2h-17.9l.42,2.36c.35,1.95.74,3.91,1.11,5.81.88,4.47,1.7,8.7,2.15,13a68.6,68.6,0,0,1,.09,9.64c-.06,1.68-.13,3.41-.13,5.13q0,17.41,0,34.82v9l-.48-.72q-4.68-7.27-9.38-14.53c-8.56-13.23-17.41-26.9-25.89-40.49-3-4.74-5.44-9.71-8.07-15-1.18-2.37-2.41-4.83-3.68-7.26l-.57-1.07H95l1.33,2.85c.62,1.32,1.36,2.59,2.08,3.81,1.37,2.35,2.67,4.57,2.71,6.55.43,19.6.42,39.75,0,59.9-.06,2.86,0,5.76.15,8.57.34,8.92.66,17.34-4,25.32l-1.76,3h18.39l-.54-2.43c-.4-1.77-.88-3.53-1.35-5.23a41.56,41.56,0,0,1-2-10.38c-.27-18.26-.23-36.84-.19-54.82l0-15.33c1,1.45,2.09,2.94,3.06,4.42q10,15.26,19.91,30.5c10.37,15.89,21.1,32.32,31.67,48.46a20.37,20.37,0,0,0,2.84,3.25c.43.42.83.82,1.21,1.23l1.06,1.15,1.38-.75.92-.51.47-.26,1-.53.06-1.1c0-.5.07-1,.1-1.48.08-1.11.17-2.24.17-3.4q0-12,0-24c0-15.56,0-31.64.13-47.46,0-1.8,0-3.62-.06-5.39-.15-8.37-.29-16.29,3.89-23.72l1.67-3Z"/><path class="cls-2" d="M239.72,360.94c-4.46,0-9-2.22-13.5-6.62-11.32-11.06-16.44-25.26-20.28-38.94-8.77-31.24-11.93-65-9.66-103.18,1.22-20.49,3.87-47.24,13.65-72.5a98.39,98.39,0,0,1,14.53-25.62c4.24-5.29,9.35-8.09,14.76-8.09,5.65,0,11.34,3.15,16,8.86,10.73,13.05,15.65,29,19.37,44.34a213.9,213.9,0,0,1,5,26.56c1.23,11.19,2.11,22.61,2.95,33.65.36,4.69.72,9.39,1.11,14.08v.11c-.92,27.61-3.29,60-13.89,91.29-3.25,9.59-7.75,20.57-16.42,29.25-4.52,4.52-9.1,6.81-13.63,6.81Zm-.61-246.68c-3.7,0-7.3,2.42-10.14,6.81a78.07,78.07,0,0,0-8.09,16.78c-7.82,22.49-10.35,45.87-11.91,67.79a383.82,383.82,0,0,0,5.83,101.6c2.36,12,5.85,25.88,13.8,38.31,3,4.72,6.4,7.21,9.78,7.21,3.1,0,6.24-2,9.31-6a78.85,78.85,0,0,0,9.91-17.48c5.85-13.8,9.63-29.38,11.93-49,.52-4.48.91-9,1.24-13.55-1.56,8.39-3.63,16.79-8.83,24.06-2.44,3.4-5.27,5.2-8.18,5.2-2,0-4.91-.86-7.65-5a62.19,62.19,0,0,1-8.25-17.79,182.57,182.57,0,0,1-2.18-87.46,70.51,70.51,0,0,1,8.34-20.4c2.32-4,5.15-4.8,7.12-4.8,2.63,0,5.28,1.46,7.68,4.23a26.76,26.76,0,0,1,4.45,7c1.37,3.22,2.61,6.54,3.79,9.79-.11-.73-.21-1.45-.32-2.18-.95-6.27-1.92-12.76-3.21-19.06-2.85-13.92-6.08-27.4-14.09-39.23C246.48,116.66,242.81,114.26,239.11,114.26Z"/><path class="cls-2" d="M239.22,107c5.31,0,10.68,2.91,15.26,8.49,10.53,12.82,15.35,28.22,19.16,44a208.83,208.83,0,0,1,5,26.43c1.75,15.85,2.75,31.79,4.06,47.7-1,31-3.83,61.51-13.83,91-3.6,10.61-8.11,20.79-16.19,28.88-4.33,4.33-8.61,6.51-12.92,6.51s-8.47-2.1-12.8-6.33c-10.85-10.61-16-24.37-20-38.5-9.45-33.66-11.69-68.07-9.62-102.85,1.46-24.66,4.63-49.07,13.59-72.2a97.18,97.18,0,0,1,14.37-25.36c4.18-5.2,9.06-7.71,14-7.71m-.84,246.77c3.35,0,6.79-2.09,10.1-6.38a80.49,80.49,0,0,0,10-17.7c6.66-15.73,10-32.4,12-49.3,1.17-10,1.64-20.09,2.43-30.13-1.27,3.74-1.62,7.56-2.28,11.31-1.75,10-3.45,20.11-9.55,28.62-2.26,3.16-4.83,4.79-7.36,4.79s-4.79-1.48-6.81-4.54a61.06,61.06,0,0,1-8.13-17.5,181.35,181.35,0,0,1-2.17-87,70.53,70.53,0,0,1,8.23-20.1c1.71-2.92,3.92-4.31,6.26-4.31s4.72,1.34,6.93,3.88a26.24,26.24,0,0,1,4.28,6.7c2.2,5.15,4,10.48,6,15.73l.72-.08c-1.49-9.24-2.67-18.54-4.54-27.7-2.84-13.85-6.15-27.65-14.24-39.59-3.26-4.8-7.22-7.21-11.16-7.21s-7.84,2.41-11,7.27a79.44,79.44,0,0,0-8.19,17c-7.65,22-10.32,45-12,68a382.93,382.93,0,0,0,5.85,101.87c2.68,13.56,6.38,26.83,13.94,38.65,3.24,5.07,6.88,7.67,10.62,7.67M239.22,105c-5.73,0-11.1,2.93-15.54,8.46A99.08,99.08,0,0,0,209,139.33c-9.84,25.4-12.5,52.25-13.72,72.81-2.28,38.3.9,72.16,9.7,103.51,3.88,13.82,9.05,28.16,20.54,39.39,4.69,4.58,9.47,6.9,14.2,6.9s9.63-2.39,14.33-7.1c8.83-8.83,13.38-19.94,16.67-29.64,10.64-31.36,13-63.89,13.94-91.57v-.24c-.39-4.68-.76-9.45-1.11-14.06-.85-11.05-1.72-22.48-3-33.69a214.46,214.46,0,0,0-5-26.68c-3.75-15.43-8.71-31.54-19.56-44.75-4.89-5.94-10.86-9.22-16.81-9.22Zm-.84,246.77c-3.82,0-7-3.67-8.94-6.75-7.86-12.29-11.31-26.09-13.66-38A383.12,383.12,0,0,1,210,205.71c1.57-21.85,4.09-45.15,11.87-67.54a77.65,77.65,0,0,1,8-16.56c2.65-4.1,5.95-6.35,9.3-6.35s6.73,2.25,9.5,6.33c7.91,11.67,11.11,25,13.94,38.87.81,4,1.5,8,2.13,12l-.49-1.17a28.08,28.08,0,0,0-4.61-7.22c-2.6-3-5.51-4.57-8.44-4.57-3.15,0-6,1.88-8,5.3a71.68,71.68,0,0,0-8.46,20.68,183.66,183.66,0,0,0,2.19,87.94,63.5,63.5,0,0,0,8.39,18.09c3,4.49,6.25,5.43,8.48,5.43s5.66-1,9-5.62a44.33,44.33,0,0,0,5.83-11.6c0,.13,0,.26-.05.39-2.28,19.56-6,35.05-11.85,48.76a78,78,0,0,1-9.78,17.26c-2.83,3.66-5.78,5.6-8.52,5.6Z"/><path class="cls-2" d="M336.44,361.08c-4.41,0-8.95-2.14-13.49-6.36-8.18-7.6-12.72-17.43-16.08-26-6.75-17.31-10.93-36.52-13.17-60.46-.78-8.34-1.16-16.56-1.46-23.16-.11-2.41-.21-4.54-.31-6.31.34-30.95,2.14-63.8,12.93-94.81a118.45,118.45,0,0,1,13.64-27.23c4.62-6.79,10.64-10.53,16.95-10.53S348,109.85,353,116.5c10.51,13.81,15.22,30.11,18.74,45.67,7.79,34.46,9.5,71.09,5.21,112-1.75,16.7-4.94,38.53-14.19,59.15A85.68,85.68,0,0,1,349.6,354c-4.06,4.71-8.49,7.1-13.16,7.1Zm-.94-246.82c-3.52,0-6.88,2.16-9.46,6.07a79.71,79.71,0,0,0-9.16,18.94C307,169.6,305.2,200.81,304.7,224.62c-.81,37.85,2,66.62,9.2,93.31A178.46,178.46,0,0,0,325,347.56c2.2,4.67,5.32,7.25,8.78,7.25,2.84,0,5.82-1.68,8.62-4.87a59.07,59.07,0,0,0,8.72-13.55c6.58-13.77,11-29.67,13.47-48.59,1-7.89,1.75-15.95,2.42-23.81-2,7.74-4,15.29-6.62,22.6-2.1,5.94-5.72,9.09-10.46,9.09-6.28,0-9.15-5.72-10.7-8.79a77.19,77.19,0,0,1-5.43-13.58,172.54,172.54,0,0,1-5.4-64.74c1.25-12.16,4.32-24.12,7.29-35.68,2-7.78,5.89-11.81,11.57-12h.32c7.05,0,9.84,6.5,11.87,11.25,1.72,4,3.14,8.17,4.49,12.25l-.6-3.64c-1.38-8.49-2.82-17.26-4.6-25.81-2.48-11.86-5.81-24.28-13.41-34.7C342.51,116.39,339,114.26,335.5,114.26Z"/><path class="cls-2" d="M335.45,107.18c5.84,0,11.77,3.36,16.77,9.92,10.21,13.42,14.91,29.19,18.55,45.29,8.35,36.9,9.13,74.19,5.2,111.66-2.12,20.23-5.75,40.2-14.11,58.85a85.09,85.09,0,0,1-13,20.43c-3.91,4.55-8.09,6.75-12.4,6.75S328,358,323.63,354c-7.6-7.06-12.13-16.18-15.83-25.67-7.54-19.35-11.18-39.62-13.1-60.19-1.07-11.43-1.39-22.92-1.77-29.44.39-35.35,2.81-65.51,12.88-94.42a116.86,116.86,0,0,1,13.52-27c4.61-6.77,10.32-10.09,16.12-10.09m-1.67,248.63c3.07,0,6.32-1.74,9.37-5.21A60.62,60.62,0,0,0,352,336.82c7.39-15.46,11.35-32,13.56-48.89,1.64-12.53,2.46-25.17,3.65-37.76-1.55,3.7-1.65,7.58-2.59,11.26-2.13,8.35-4.32,16.71-7.19,24.83-1.47,4.17-4.25,8.42-9.52,8.42h0c-5.21,0-7.78-4.22-9.79-8.24a75.9,75.9,0,0,1-5.37-13.4,171.33,171.33,0,0,1-5.37-64.37c1.23-12,4.26-23.83,7.27-35.54,1.33-5.2,4.16-11,10.62-11.21h.3c6.27,0,8.84,5.72,10.95,10.64,2.72,6.34,4.66,13,6.93,19.54l.76-.11c-2.13-12.41-3.93-24.9-6.5-37.22s-6-24.66-13.58-35.09c-3.1-4.26-6.9-6.42-10.64-6.42s-7.42,2.15-10.29,6.52A80.53,80.53,0,0,0,315.93,139c-9,27.8-11.62,56.61-12.23,85.64-.67,31.56,1,63,9.23,93.59A180.48,180.48,0,0,0,324.09,348c2.46,5.22,5.93,7.83,9.69,7.83m1.67-250.63c-6.65,0-13,3.9-17.77,11a119.06,119.06,0,0,0-13.76,27.46c-10.85,31.15-12.65,64.1-13,95.06v.14c.11,1.76.2,3.86.31,6.29.31,6.62.68,14.85,1.46,23.22,2.25,24,6.46,43.33,13.24,60.73,3.4,8.71,8,18.67,16.33,26.41,4.73,4.39,9.5,6.62,14.17,6.62,5,0,9.66-2.5,13.92-7.44a87.55,87.55,0,0,0,13.33-20.92C373,313,376.2,291,378,274.26c4.29-41,2.58-77.74-5.24-112.31-3.54-15.67-8.29-32.1-18.91-46.06-5.26-6.9-11.78-10.71-18.36-10.71Zm-1.67,248.63c-3,0-5.85-2.37-7.88-6.68a178.15,178.15,0,0,1-11-29.46c-7.15-26.59-10-55.28-9.17-93,.5-23.74,2.34-54.86,12.14-85.06a78.44,78.44,0,0,1,9-18.7c2.38-3.62,5.45-5.62,8.62-5.62s6.39,2,9,5.59c7.49,10.28,10.79,22.57,13.24,34.33,1.28,6.1,2.37,12.33,3.4,18.49-.26-.64-.52-1.27-.79-1.9-2-4.72-5.08-11.85-12.79-11.85h-.35c-4.25.12-9.87,2.42-12.51,12.72-3,11.6-6.06,23.6-7.32,35.83a173.45,173.45,0,0,0,5.44,65.11,76.92,76.92,0,0,0,5.5,13.76c1.64,3.26,4.69,9.34,11.58,9.34,3.64,0,8.57-1.7,11.42-9.76,1.33-3.78,2.53-7.62,3.64-11.52-.4,4.1-.85,8.21-1.38,12.27-2.47,18.82-6.85,34.61-13.39,48.29a58.15,58.15,0,0,1-8.56,13.32c-2.6,3-5.32,4.53-7.87,4.53Z"/><path class="cls-2" d="M129,227.76a62.68,62.68,0,0,1-8.88-.86c-2.25-.33-4.58-.67-6.85-.79-1.91-.11-4-.16-6.53-.16-1.69,0-3.41,0-5.18.05s-3.83,0-5.86,0H93.74l1.09-1.57c5.63-8.09,6.08-16.65,6.07-25.44q0-24.32,0-48.62v-4.83c0-8.79-.45-17.32-6-25.06L93.77,119l3.65-.16,2.62-.13c2.75-.19,5.49-.4,8.24-.6,5.77-.44,11.73-.89,17.6-1.17,1.26-.06,2.5-.09,3.71-.09,10,0,18.57,2,26.19,6.23a27.23,27.23,0,0,1,14.08,24.39,24.79,24.79,0,0,1-12.4,21.4l3.54,1.68c13.34,6.28,18.82,16,17.78,31.65-.73,10.89-8.9,19.52-21.33,22.52-8.57,2.06-17.42,2.58-27.28,3-.4,0-.81,0-1.22,0Zm-16.42-28.68c-.13,10,3.64,16.92,11.5,21a30.5,30.5,0,0,0,14.22,3.64,31.66,31.66,0,0,0,15.83-4.46c3.53-2,7.7-6.26,8.84-10.43,2.76-10.15,1.35-20.35-3.76-27.3-4.87-6.61-12.92-10.3-23.3-10.67l-1.28,0c-11.2,0-17.88,5.58-20.43,17-.55,2.5-.87,5.13-1.17,7.66C112.84,196.73,112.7,197.91,112.53,199.08ZM130,121.64c-10,0-16.53,6.3-17,16.45-.45,9.51-.34,19.23-.24,28.63,0,3.13.07,6.34.09,9.55A27.14,27.14,0,0,1,130.13,166a43.1,43.1,0,0,1,7-.54,56.51,56.51,0,0,1,5.71.3q.6.06,1.17.06c2.77,0,4.83-1.11,6.88-3.72,4.32-5.5,5.45-13.72,3-22s-7.7-14.44-14.2-16.71A29.16,29.16,0,0,0,130,121.64Z"/><path class="cls-2" d="M129.59,117.87c9,0,17.64,1.67,25.71,6.11,17.06,9.37,19.1,35.23,0,45l5.31,2.51c12.92,6.09,18.21,15.52,17.2,30.68-.67,10-8,18.58-20.57,21.62-8.76,2.11-18,2.58-27.08,3q-.58,0-1.17,0c-5.2,0-10.44-1.36-15.68-1.65-2.17-.12-4.35-.16-6.59-.16-3.49,0-7.11.09-11,.09,5.85-8.42,6.26-17.16,6.25-26q0-26.73,0-53.45c0-8.85-.41-17.59-6.24-25.64,1.93-.09,3.18-.13,4.44-.21,8.6-.6,17.2-1.36,25.82-1.77,1.23-.06,2.44-.09,3.66-.09m-17.72,61.48c4.57-7,10.67-11,18.42-12.32a41.86,41.86,0,0,1,6.83-.53,54.67,54.67,0,0,1,5.6.3c.45,0,.87.06,1.28.06,3.3,0,5.59-1.46,7.66-4.1,9.56-12.17,3-35.18-11.6-40.29a30.48,30.48,0,0,0-10-1.83c-10.18,0-17.49,6.37-18,17.4-.65,13.74-.14,27.54-.14,41.31m26.38,45.39a32.59,32.59,0,0,0,16.32-4.6c4-2.28,8.15-6.76,9.31-11,4.85-17.8-2.09-38.3-28-39.23l-1.32,0c-11.77,0-18.77,6-21.4,17.83-.83,3.71-1.11,7.55-1.65,11.33-.14,9.68,3.28,17.41,12,22a31.56,31.56,0,0,0,14.68,3.75m-8.66-108.87c-1.22,0-2.49,0-3.76.09-5.88.29-11.85.73-17.62,1.17-2.75.2-5.49.41-8.24.6-.79.06-1.59.09-2.6.13l-1.79.08-3.7.17,2.17,3c5.43,7.5,5.87,15.52,5.86,24.47v5.09c0,15.85,0,32.24,0,48.36,0,8.95-.42,17-5.89,24.87L91.82,227h3.83c2,0,4,0,5.88,0s3.48-.05,5.16-.05c2.52,0,4.58.05,6.48.16,2.22.12,4.53.45,6.76.78a62.63,62.63,0,0,0,9,.87q.63,0,1.26,0c9.91-.42,18.82-.93,27.46-3,12.87-3.11,21.34-12.08,22.1-23.42,1.07-16.09-4.59-26.15-18.35-32.63l-1.91-.9a25.69,25.69,0,0,0,11.34-21.25,28.23,28.23,0,0,0-14.6-25.29c-7.77-4.27-16.49-6.35-26.67-6.35ZM113.84,173.6c0-2.32,0-4.63-.07-6.9-.1-9.38-.21-19.08.24-28.57s6.59-15.49,16-15.49a28.51,28.51,0,0,1,9.37,1.72c6.2,2.17,11.27,8.17,13.56,16s1.26,15.87-2.86,21.11c-1.86,2.38-3.63,3.34-6.09,3.34-.34,0-.7,0-1.07-.05a55.52,55.52,0,0,0-5.81-.31,43.83,43.83,0,0,0-7.15.56,27.88,27.88,0,0,0-16.13,8.54Zm-.31,25.56c.16-1.17.31-2.35.44-3.49.32-2.63.62-5.11,1.16-7.56,2.46-11.09,8.64-16.26,19.45-16.26l1.24,0c10.07.37,17.86,3.92,22.53,10.27,4.94,6.7,6.28,16.59,3.6,26.44-.94,3.45-4.46,7.59-8.37,9.83a30.68,30.68,0,0,1-15.33,4.33,29.6,29.6,0,0,1-13.76-3.52c-7.48-3.91-11.07-10.47-11-20.06Z"/></g></g></svg>