<svg xmlns="http://www.w3.org/2000/svg" viewBox="0 0 192.16 295.65"><defs><style>.cls-1{fill:#0b3460;stroke:#0b3460;stroke-miterlimit:10;stroke-width:3px;}</style></defs><title>Asset11</title><g id="Layer_2" data-name="Layer 2"><g id="Layer_1-2" data-name="Layer 1"><path class="cls-1" d="M81.75,62.13c-4-18.18-9-36-20-50.81C52.6-1.12,40.38-2.09,31.36,10.42a116.33,116.33,0,0,0-15,29.31c-9.32,26.75-12.62,55-14.14,83.49-2.15,40.22.18,80,10,118.92,4.13,16.35,9.54,32.26,20.84,44.52,9.09,9.87,17.84,9.73,26.78-.21,8.41-9.35,13.11-21.12,16.85-33.38C87.15,219,90.06,183.66,91.14,147.85c-1.37-18.39-2.41-36.82-4.23-55.16A267.75,267.75,0,0,0,81.75,62.13ZM78.49,202c-2,19.54-5.55,38.81-12.48,57a95.76,95.76,0,0,1-10.46,20.46C48.26,289.94,40.38,289.1,34,278c-7.87-13.67-11.72-29-14.51-44.7a490.5,490.5,0,0,1-6.09-117.79c1.72-26.67,4.5-53.24,12.46-78.68a97,97,0,0,1,8.53-19.65C40.9,5.92,50.63,6,57.41,17.09c8.42,13.8,11.87,29.76,14.82,45.78,2,10.59,3.18,21.34,4.73,32l-.75.1c-2-6.08-3.93-12.23-6.22-18.2a31,31,0,0,0-4.46-7.74c-4.63-5.93-10.2-6.21-13.73.5a86.75,86.75,0,0,0-8.57,23.24,232.24,232.24,0,0,0,2.26,100.59A74.6,74.6,0,0,0,54,213.61c4.33,7.25,10.17,6.84,14.76-.28,6.35-9.85,8.12-21.52,9.94-33.1.69-4.34,1-8.75,2.37-13.08C80.2,178.76,79.71,190.42,78.49,202Z"/><path class="cls-1" d="M182.87,65.56c-3.79-18.62-8.69-36.85-19.32-52.37-10.38-15.15-24.63-15.5-34.24.2a141.49,141.49,0,0,0-14.08,31.22c-10.48,33.42-13,68.3-13.4,109.18.39,7.53.72,20.82,1.83,34,2,23.78,5.79,47.21,13.65,69.59,3.85,11,8.57,21.52,16.48,29.69,9.15,9.44,18.22,9.58,26.25-.77a100.23,100.23,0,0,0,13.55-23.62c8.71-21.57,12.49-44.66,14.69-68.05C192.37,151.34,191.56,108.22,182.87,65.56Zm-5.41,145.16c-2.3,19.54-6.42,38.66-14.11,56.53a71.51,71.51,0,0,1-9.24,15.94c-7.06,8.93-15.19,7.92-19.84-3a222.9,222.9,0,0,1-11.62-34.45C114.09,210.28,112.34,174,113,137.49c.64-33.57,3.35-66.88,12.74-99a97.34,97.34,0,0,1,9.65-22.18c6-10.1,15.33-10,21.79-.12,7.92,12.07,11.45,26.25,14.14,40.58s4.55,28.68,6.77,43l-.79.12C175,92.36,173,84.64,170.13,77.32c-2.23-5.78-5-12.51-11.72-12.3S148.74,72,147.35,78c-3.13,13.54-6.28,27.24-7.56,41.09a219.11,219.11,0,0,0,5.59,74.43A94.15,94.15,0,0,0,151,209c2.1,4.65,4.78,9.52,10.21,9.52s8.38-4.91,9.91-9.73c3-9.39,5.27-19.06,7.49-28.72,1-4.24,1.09-8.73,2.69-13C180,181.62,179.18,196.23,177.46,210.72Z"/></g></g></svg>