<svg xmlns="http://www.w3.org/2000/svg" viewBox="0 0 574.81 460.22"><defs><style>.cls-1{fill:#edf7ff;}.cls-2{fill:#0b3460;stroke:#0b3460;stroke-miterlimit:10;stroke-width:3px;}</style></defs><title>Asset8</title><g id="Layer_2" data-name="Layer 2"><g id="Layer_1-2" data-name="Layer 1"><path class="cls-1" d="M111.72,390.94c-10.13,0-20.34.75-30.38-.2-11.26-1.07-17.57-7.62-19.39-18.82-1.74-10.65-2.79-21.4-4.11-32.11-1.24-10.13-6.11-17.88-15.23-22.56-9.3-4.78-18.88-9-28.12-13.89C7.28,299.55.34,294.64.34,285.55c0-5.43,1.71-11.14,3.86-16.22,3.43-8.07,7.83-15.74,11.9-23.54,5.7-10.9,5.22-21.68-.42-32.42-3.39-6.47-7-12.85-10.09-19.45a83.06,83.06,0,0,1-4.81-13c-2.44-8.69,1-15.55,8.08-20.27,5.76-3.85,12.16-6.75,18.35-10,3.53-1.83,7.14-3.54,10.81-5.09,14-6,19.91-17.1,20.88-31.77.56-8.44,1.62-16.87,3-25.22C64,75.83,72,69,84.93,68.94c10.65,0,21.3.59,31.94,1,11.49.43,20.32-4,26.32-13.94,5.85-9.66,11.3-19.59,17.7-28.88,6.78-9.85,14.88-12.44,26.1-8.48,10.78,3.8,21,9.15,31.89,12.67,5.77,1.87,12.71,2.81,18.44,1.41,5.39-1.33,10.12-6,14.73-9.72,6-4.79,11.38-10.25,17.28-15.12C282-2.59,292.42-2.63,305.14,7.78c6.82,5.59,13.53,11.34,20,17.32,10.26,9.49,21.6,10.7,34.09,5.3,8.37-3.63,16.64-7.54,25.19-10.71,14.69-5.46,22.77-2.9,31.59,10.14a220.56,220.56,0,0,1,12.53,21.52c7,13.34,17.43,20,32.76,18.65,8.62-.74,17.29-1,25.94-1.1,16.21-.12,24.21,7,26.33,23.06,1.37,10.37,2.49,20.77,3.93,31.13,1.26,9.1,6.5,15.56,14.44,19.74,7.33,3.87,14.9,7.28,22.32,11a87.67,87.67,0,0,1,10,5.56c10.21,6.93,13,14.7,8.39,26.24A174.2,174.2,0,0,1,561,209.29c-8.42,14.35-8.08,28.12.37,42.34a152,152,0,0,1,11.7,24.16c4,10.74,1,18.6-8.64,24.89a154.22,154.22,0,0,1-14.9,8c-3.71,1.87-7.47,3.67-11.33,5.18-16.12,6.33-21.87,19.09-22.69,35.34a133,133,0,0,1-2.84,22.71c-3.22,14.23-10.08,19.56-24.7,19.59-12.65,0-25.31-.37-37.94-1-4.68-.22-8.37,1.36-10.84,4.77-5.82,8-11.19,16.41-16.69,24.67-3.12,4.71-5.86,9.69-9.27,14.17-6.38,8.37-14.64,11.06-24.74,7.74-7.23-2.38-14.1-5.81-21.22-8.51-6.82-2.59-13.62-5.45-20.69-7-3.5-.77-8.42,0-11.25,2-9.94,7.2-19.25,15.26-28.79,23-.65.53-1.24,1.12-1.9,1.62-12.43,9.42-21.37,9.67-33.88.3-5.57-4.18-10.45-9.28-15.88-13.67s-10.73-9.17-16.85-12.27c-3.41-1.73-8.68-1.37-12.6-.22-8.39,2.47-16.42,6.16-24.65,9.18-6.2,2.28-12.41,4.63-18.78,6.33-7.51,2-14.11-.84-18.6-6.67-5.34-6.93-9.69-14.64-14.42-22.05-2.58-4.05-4.89-8.3-7.63-12.25-5.45-7.84-13-11.56-22.64-11.1-2.32.11-4.66,0-7,0Z"/><path class="cls-2" d="M424.15,224c-2.3-3.83-5.14-6.83-6.11-10.45-3.57-13.21-3.08-26.65.24-39.85,1.84-7.34,6.76-11.28,13.42-12.85,6.84-1.61,12.4.84,16.7,6.55a43.72,43.72,0,0,1,5.7,10.24c5.52,14.08,10.73,28.32,16.18,42.44.59,1.55,1.9,3.8,3,3.88,5.36.41,10.76.19,15.21.19-4.62-9.86-9.39-18.94-13.21-28.48C470.2,183,466,169.91,454.76,160.51l34.16-59.73c-4.27,0-8.46-.35-12.57.16a7.6,7.6,0,0,0-5,3.49c-8.75,16.12-17.19,32.45-26,48.55a7,7,0,0,1-5.19,3.18c-9.71,0-17.88,3.34-24,12.55,0-15.91-.3-31.42.12-46.9.21-7.63,1.6-15.29,8.93-20.68h-28c5.44,9.92,6.09,20.44,6.1,31.06,0,17.14,0,34.29-.1,51.43-.05,13.71,1.24,27.66-6.23,40.41Z"/><path class="cls-2" d="M398.85,243.43c1.51,8.91,3.83,17.23,4.16,25.65.64,16.73.36,33.52.14,50.27-.22,15.94,2.21,32.29-5.83,47.09H423.5c-2.05-4.13-4.92-8-5.95-12.32-2.81-11.9-2.43-24,.24-36,1.76-7.88,6.24-12.71,13.29-14.49,6.84-1.72,12.84.24,17.26,6.34a48.6,48.6,0,0,1,5.91,10.76c5.45,13.92,10.58,28,15.91,42,.56,1.46,1.62,3.75,2.55,3.81,5.24.38,10.52.18,15.68.18-4.38-9.26-8.77-17.48-12.26-26.15-5.42-13.48-9.66-27.65-21.1-37.21,5.64-10.29,10.89-20.22,16.47-29.94s11.57-19.41,17.8-29.81c-4.41,0-8.52.18-12.62-.06-3.05-.18-4.41,1.29-5.89,4.18-8.41,16.35-17.09,32.53-25.82,48.66-.74,1.36-2.62,2.93-3.86,2.82-10.16-.84-18.5,2.84-25.3,12.51,0-12.44-.1-23.81,0-35.17.14-11.77-.69-23.91,9-33.12Z"/><path class="cls-2" d="M100.4,262.12l1.14-.48c2,3.08,4,6.11,5.87,9.27q26.86,45.64,53.7,91.3a38.8,38.8,0,0,0,4,4.88l1.45-.89c.09-1.83.27-3.67.27-5.51.06-27.55,0-55.1.18-82.66.06-11.72-1.36-23.7,4.25-34.77H158.68c1.2,7.41,2.73,14.63,3.42,21.95.53,5.71,0,11.55,0,17.33q0,27.9,0,55.8a12.27,12.27,0,0,1-4.34-4.71C145.44,312.44,133,291.37,121,270c-4.58-8.14-8.15-17-12.32-25.83H90.33c1.89,4.48,5.11,8.65,5.19,12.91q.67,34.67,0,69.36c-.27,13.45,2.51,27.38-4.3,40.31H104.1c-1.26-6.28-3.46-12.38-3.54-18.52C100.19,319.52,100.4,290.82,100.4,262.12Z"/><path class="cls-2" d="M273,147.85c-4-18.19-9-36-19.95-50.82-9.2-12.44-21.41-13.41-30.44-.9a116.2,116.2,0,0,0-15,29.32c-9.33,26.74-12.62,55-14.15,83.48-2.15,40.22.19,80,10,118.92,4.14,16.35,9.55,32.26,20.85,44.53,9.09,9.86,17.84,9.72,26.77-.21,8.42-9.36,13.11-21.13,16.86-33.39,10.41-34.1,13.33-69.4,14.4-105.22-1.36-18.39-2.4-36.82-4.22-55.16A269.45,269.45,0,0,0,273,147.85ZM269.78,287.7c-2,19.54-5.55,38.81-12.49,57a95.3,95.3,0,0,1-10.46,20.46c-7.29,10.48-15.16,9.64-21.57-1.49-7.87-13.67-11.72-29-14.51-44.69a490.61,490.61,0,0,1-6.09-117.8c1.71-26.66,4.49-53.23,12.46-78.68a97.25,97.25,0,0,1,8.53-19.65c6.53-11.23,16.27-11.16,23-.06,8.43,13.8,11.88,29.76,14.83,45.78,2,10.59,3.18,21.34,4.73,32l-.75.1c-2.05-6.08-3.94-12.23-6.23-18.2a30.4,30.4,0,0,0-4.45-7.73c-4.64-5.94-10.2-6.21-13.73.49a86.75,86.75,0,0,0-8.57,23.24,232.08,232.08,0,0,0,2.26,100.59,74.6,74.6,0,0,0,8.46,20.23c4.33,7.26,10.16,6.84,14.76-.28,6.35-9.85,8.12-21.52,9.94-33.09.69-4.35,1.05-8.76,2.37-13.09C271.49,264.47,271,276.13,269.78,287.7Z"/><path class="cls-2" d="M374.15,151.27c-3.79-18.62-8.68-36.85-19.31-52.36-10.39-15.16-24.63-15.5-34.24.19a141.45,141.45,0,0,0-14.08,31.22c-10.48,33.42-13,68.3-13.41,109.18.39,7.53.73,20.83,1.84,34,2,23.78,5.79,47.22,13.65,69.59,3.85,11,8.56,21.53,16.47,29.69,9.16,9.44,18.22,9.58,26.25-.76a100,100,0,0,0,13.56-23.63c8.71-21.56,12.48-44.65,14.69-68.05C383.65,237.05,382.84,193.94,374.15,151.27Zm-5.4,145.17c-2.3,19.53-6.42,38.65-14.12,56.53a72,72,0,0,1-9.23,15.93c-7.06,8.93-15.2,7.92-19.84-3a221.84,221.84,0,0,1-11.62-34.45c-8.57-35.42-10.31-71.73-9.62-108.22.64-33.57,3.35-66.88,12.74-99A97.81,97.81,0,0,1,326.72,102c6-10.1,15.33-10,21.79-.12,7.92,12.07,11.45,26.26,14.14,40.58s4.54,28.68,6.77,43l-.8.12c-2.36-7.55-4.38-15.26-7.21-22.59-2.23-5.78-5-12.51-11.71-12.3s-9.67,7-11.06,13c-3.13,13.54-6.28,27.25-7.57,41.1a219.32,219.32,0,0,0,5.59,74.42,95.11,95.11,0,0,0,5.59,15.5c2.1,4.65,4.78,9.53,10.2,9.52s8.38-4.91,9.92-9.73c3-9.38,5.26-19.06,7.48-28.72,1-4.24,1.09-8.73,2.7-13C371.31,267.33,370.46,282,368.75,296.44Z"/><path class="cls-2" d="M155.31,161.77l-5.52-2.9c19.92-11.27,17.79-41.17,0-52-9.54-5.82-19.89-7.52-30.58-6.95-9,.47-17.92,1.35-26.88,2-1.31.1-2.61.14-4.62.24,6.07,9.31,6.5,19.42,6.49,29.65q0,30.9,0,61.8c0,10.24-.41,20.35-6.5,30.09,6.71,0,12.55-.28,18.35.07s11.74,2.15,17.55,1.88c9.44-.44,19.06-1,28.19-3.43,13.08-3.51,20.72-13.48,21.41-25C174.28,179.72,168.77,168.81,155.31,161.77Zm-50.56-38.66c.71-16.65,13.46-24.12,29.2-18,15.17,5.91,22,32.52,12.08,46.58-2.42,3.43-5.13,5.15-9.3,4.68a44.6,44.6,0,0,0-12.95.26c-8.07,1.49-14.42,6.2-19.18,14.25C104.6,155,104.07,139,104.75,123.11Zm54,82.18c-1.21,4.94-5.54,10.12-9.69,12.76-10.28,6.55-21.45,7.25-32.28,1-9.12-5.29-12.67-14.22-12.53-25.42.56-4.37.86-8.81,1.71-13.1,2.85-14.22,10.58-21.11,23.66-20.58C156.58,161,163.8,184.71,158.75,205.29Z"/></g></g></svg>